HIERARCHY
ROOT root
{
	OFFSET 0.000000 0.000000 0.000000
	CHANNELS 6 Xposition Yposition Zposition Zrotation Yrotation Xrotation
	JOINT lhip
	{
		OFFSET 0.058581 -0.082280 -0.017664
		CHANNELS 3 Zrotation Yrotation Xrotation
		JOINT lknee
		{
			OFFSET 0.043451 -0.386469 0.008037
			CHANNELS 3 Zrotation Yrotation Xrotation
			JOINT lankle
			{
				OFFSET -0.014790 -0.426874 -0.037428
				CHANNELS 3 Zrotation Yrotation Xrotation
				JOINT ltoe
				{
					OFFSET 0.041054 -0.060286 0.122042
					CHANNELS 3 Zrotation Yrotation Xrotation
					End Site
					{
						OFFSET 0.000000 0.000000 0.000000
					}
				}
			}
		}
	}
	JOINT rhip
	{
		OFFSET -0.060310 -0.090513 -0.013543
		CHANNELS 3 Zrotation Yrotation Xrotation
		JOINT rknee
		{
			OFFSET -0.043257 -0.383688 -0.004843
			CHANNELS 3 Zrotation Yrotation Xrotation
			JOINT rankle
			{
				OFFSET 0.019056 -0.420046 -0.034562
				CHANNELS 3 Zrotation Yrotation Xrotation
				JOINT rtoe
				{
					OFFSET -0.034840 -0.062106 0.130323
					CHANNELS 3 Zrotation Yrotation Xrotation
					End Site
					{
						OFFSET 0.000000 0.000000 0.000000
					}
				}
			}
		}
	}
	JOINT lowerback
	{
		OFFSET 0.004439 0.124404 -0.038385
		CHANNELS 3 Zrotation Yrotation Xrotation
		JOINT upperback
		{
			OFFSET 0.004488 0.137956 0.026820
			CHANNELS 3 Zrotation Yrotation Xrotation
			JOINT chest
			{
				OFFSET -0.002265 0.056032 0.002855
				CHANNELS 3 Zrotation Yrotation Xrotation
				JOINT lowerneck
				{
					OFFSET -0.013390 0.211636 -0.033468
					CHANNELS 3 Zrotation Yrotation Xrotation
					JOINT upperneck
					{
						OFFSET 0.010113 0.088937 0.050410
						CHANNELS 3 Zrotation Yrotation Xrotation
						End Site
						{
							OFFSET 0.000000 0.000000 0.000000
						}
					}
				}
				JOINT lclavicle
				{
					OFFSET 0.071702 0.114000 -0.018898
					CHANNELS 3 Zrotation Yrotation Xrotation
					JOINT lshoulder
					{
						OFFSET 0.122921 0.045205 -0.019046
						CHANNELS 3 Zrotation Yrotation Xrotation
						JOINT lelbow
						{
							OFFSET 0.255332 -0.015649 -0.022946
							CHANNELS 3 Zrotation Yrotation Xrotation
							JOINT lwrist
							{
								OFFSET 0.265709 0.012698 -0.007375
								CHANNELS 3 Zrotation Yrotation Xrotation
								End Site
								{
									OFFSET 0.000000 0.000000 0.000000
								}
							}
						}
					}
				}
				JOINT rclavicle
				{
					OFFSET -0.082954 0.112472 -0.023707
					CHANNELS 3 Zrotation Yrotation Xrotation
					JOINT rshoulder
					{
						OFFSET -0.113228 0.046853 -0.008472
						CHANNELS 3 Zrotation Yrotation Xrotation
						JOINT relbow
						{
							OFFSET -0.260127 -0.014369 -0.031269
							CHANNELS 3 Zrotation Yrotation Xrotation
							JOINT rwrist
							{
								OFFSET -0.269108 0.006794 -0.006027
								CHANNELS 3 Zrotation Yrotation Xrotation
								End Site
								{
									OFFSET 0.000000 0.000000 0.000000
								}
							}
						}
					}
				}
			}
		}
	}
}
MOTION
Frames: 18
Frame Time: 0.033333
0.124972 0.160416 0.995599 116.689175 1.032547 84.757040 -1.347014 -0.680704 7.833879 -2.664327 -17.652639 1.372604 5.204716 7.460871 -11.596896 0.000000 -0.000000 0.000000 0.477916 2.968164 -11.849501 -3.908256 4.183668 33.204607 4.451817 -11.429102 -13.685537 0.000000 -0.000000 0.000000 -2.610240 -1.024444 9.170487 0.812985 0.612135 2.056829 -1.872273 0.270072 3.560597 5.366785 6.742488 8.483583 -0.412912 -0.224225 19.219690 -28.660093 4.304430 -1.900743 -46.733383 -7.585510 9.568586 5.412528 -29.921579 14.182299 4.690612 -5.370914 8.179285 30.091382 -4.890273 1.839955 52.926784 -1.835775 14.572444 -20.079087 36.628711 5.962099 4.359859 5.436966 9.867689 
0.130696 0.163480 0.995673 118.608438 1.037186 85.427284 -1.203877 -1.128314 7.534870 -2.736834 -18.502202 1.229205 5.026231 6.870107 -11.798353 0.000000 -0.000000 0.000000 0.800501 4.511527 -13.509509 -2.762144 6.716863 29.089871 5.272270 -8.859081 -13.823904 0.000000 -0.000000 0.000000 -2.502114 -0.967645 9.237403 0.858780 0.803489 1.892785 -1.935718 0.234887 3.558511 5.339496 7.330551 8.142553 -0.450310 -0.751873 18.949851 -28.871412 4.334168 -2.184528 -46.691317 -8.024238 10.091482 6.055493 -30.463871 13.261490 4.925494 -5.571205 8.061742 30.194492 -5.037520 1.779823 52.580073 -1.511144 14.706061 -19.916712 36.490730 6.117384 3.893640 5.379696 9.643566 
0.138135 0.166700 0.995476 120.535939 1.037361 86.047908 -1.013114 -1.627035 7.272834 -2.812048 -19.603909 1.271015 4.820225 6.383452 -12.066550 0.000000 -0.000000 0.000000 1.116250 5.627405 -14.538127 -1.710923 10.538769 24.528251 6.230973 -5.430442 -12.714890 0.000000 -0.000000 0.000000 -2.332347 -0.741697 8.852675 0.939670 0.917240 2.160375 -1.983128 0.231554 3.470646 5.203179 7.470665 8.226774 -0.526274 -1.377338 18.819911 -28.951004 4.412112 -2.285051 -46.897339 -8.235628 10.567747 6.648291 -31.004803 12.407752 4.910647 -5.622816 7.655525 30.213782 -5.304597 2.029750 52.045129 -1.074228 14.680769 -19.602964 36.420884 6.405556 3.599668 5.411727 8.854924 
0.145862 0.169925 0.995565 122.690771 1.134812 86.525313 -0.679748 -2.033344 6.907298 -3.002380 -20.851830 1.835846 4.670712 5.791963 -12.463216 0.000000 -0.000000 0.000000 1.507368 6.609735 -15.005068 -1.834656 13.540519 19.766727 6.796616 -2.629876 -11.916175 0.000000 -0.000000 0.000000 -1.922224 -0.782812 8.714648 0.961327 0.948570 2.342801 -1.987917 0.243731 3.443379 4.911741 7.668731 8.280828 -0.565495 -1.376217 18.527728 -29.000889 4.668526 -2.659740 -47.391155 -8.312767 10.945118 7.045342 -31.343180 11.967181 4.593798 -5.602710 7.444730 29.907275 -5.346240 2.158963 51.659810 -0.774161 14.678747 -19.291284 36.295101 6.455741 3.701859 5.063714 7.994258 
0.155275 0.173890 0.995748 125.079171 1.236115 86.530255 -0.345682 -2.691288 7.242818 -3.101937 -22.119791 2.235509 4.490636 5.330179 -13.012003 0.000000 -0.000000 0.000000 1.664096 6.992536 -14.878741 -1.832775 14.767626 15.989180 7.804855 -1.509813 -10.660075 0.000000 -0.000000 0.000000 -1.345246 -0.764718 8.729538 1.013394 0.906118 2.751677 -2.050423 0.250242 3.455587 4.769330 7.804176 8.523695 -0.676889 -1.293330 18.424317 -29.092898 4.767061 -2.685566 -47.900620 -8.459621 11.282386 7.175391 -31.441853 11.860014 4.896991 -5.581835 6.959600 29.790669 -5.510369 2.250462 51.134656 -0.530315 14.463121 -19.176619 36.222782 6.094444 2.673679 5.423057 7.893428 
0.165974 0.177807 0.995524 127.668041 1.243123 86.334412 0.085894 -2.830945 7.797748 -3.272535 -23.960466 2.682652 4.131488 4.695392 -14.067739 0.000000 -0.000000 0.000000 1.575824 7.026557 -14.282205 -1.561019 14.190219 13.308525 8.746538 -0.788835 -8.953478 0.000000 -0.000000 0.000000 -1.057046 -0.981972 8.852816 1.084821 0.857372 3.140150 -1.900874 0.427315 3.331743 4.668291 8.244271 9.305409 -0.552414 -0.886293 18.444361 -29.161460 4.685834 -2.492246 -48.430523 -8.286710 11.302729 7.453426 -31.488570 11.746512 4.086954 -5.397322 7.528402 29.566515 -5.408197 2.705021 50.729223 -0.467892 13.848028 -19.086865 36.157569 5.990383 4.034827 4.961393 7.326535 
0.177143 0.182340 0.994855 130.165105 1.013671 86.136432 0.175584 -3.347705 8.217534 -3.574573 -25.479950 3.470337 4.038688 4.263970 -14.883239 0.000000 -0.000000 0.000000 1.391347 7.069368 -13.319097 -1.290786 14.375731 11.962559 9.778296 -0.234598 -7.140341 0.000000 -0.000000 0.000000 -0.741192 -0.975451 8.918567 1.110419 0.926655 3.153013 -1.956816 0.236846 3.362381 4.777746 7.899098 9.846424 -0.884034 -0.623090 19.271797 -29.063891 5.126808 -2.452261 -48.904866 -7.969051 11.508088 7.350881 -31.488219 11.982229 4.181213 -5.472185 7.674092 29.511163 -5.567186 2.438411 50.236302 -0.579909 13.911629 -18.665550 35.819434 5.906953 3.430149 5.231880 7.386640 
0.189099 0.187012 0.992914 132.754046 0.422887 86.251342 -0.003775 -4.065152 8.219104 -4.062198 -26.590238 4.462506 4.202136 3.835932 -15.890655 0.000000 -0.000000 0.000000 1.085344 7.056408 -12.484428 -1.201097 15.333120 12.109719 9.125989 -0.160234 -6.342581 0.000000 -0.000000 0.000000 -0.945978 -0.729144 7.967187 1.307515 0.860574 3.695604 -1.987432 0.223828 3.494062 5.121847 8.108894 10.683864 -1.088627 -0.193623 19.716991 -29.094200 5.538228 -2.266804 -49.082851 -7.785087 11.715939 7.494937 -31.496323 12.378515 3.032483 -5.289448 7.380480 29.677886 -5.896910 2.521462 49.799819 -0.461675 13.850171 -18.809719 35.533203 5.601792 4.335233 4.897719 6.751230 
0.202161 0.191933 0.991247 134.985934 -0.034234 86.182986 -0.123439 -4.626345 8.591593 -4.256721 -27.958388 5.274442 4.225464 3.645940 -16.628599 0.000000 -0.000000 0.000000 1.002696 6.461674 -11.602237 -1.565953 14.325232 12.336768 7.553242 -1.615105 -5.285150 0.000000 -0.000000 0.000000 -0.715659 -0.497578 7.243161 1.250565 0.973195 3.889824 -2.076227 0.454793 3.807149 5.086885 8.193173 11.395169 -1.159063 0.363661 20.246095 -29.189515 6.034216 -2.245260 -49.040243 -7.412973 11.666220 7.363861 -31.393123 13.167062 3.075512 -5.266489 7.100993 29.744271 -6.082584 2.644699 49.709106 -0.528316 13.628432 -18.960961 35.248422 5.221620 4.433450 4.880282 5.853853 
0.215515 0.196989 0.991852 136.942648 -0.117198 85.734961 0.249552 -4.523364 8.815088 -5.085966 -29.047983 7.263283 3.744904 3.344683 -17.434035 0.000000 -0.000000 0.000000 0.847308 5.638649 -10.223040 -1.084247 13.377771 12.269301 7.258442 -2.217295 -4.905335 0.000000 -0.000000 0.000000 0.166160 -0.211746 7.430058 1.139153 1.467347 3.624752 -2.310464 0.552767 3.733041 5.100026 8.421100 12.378804 -1.283488 0.722370 21.102500 -29.780900 6.712952 -2.408265 -48.549293 -6.946182 11.212423 7.069348 -30.737164 13.233921 4.730964 -5.175724 7.768278 30.235695 -6.433694 2.747475 49.128653 -0.591448 13.206312 -18.352039 34.533760 5.310479 3.100993 4.885574 5.903702 
0.226831 0.200959 0.993367 138.997475 -0.058609 85.642248 0.364475 -4.883648 8.117781 -5.905842 -29.163270 10.145464 3.406585 3.126858 -18.232879 0.000000 -0.000000 0.000000 0.818838 4.717571 -9.594860 -0.616172 12.442229 12.938005 6.957949 -2.372415 -5.837991 0.000000 -0.000000 0.000000 1.043315 0.068098 7.261006 1.250757 1.658200 3.658154 -2.242652 0.885812 3.767460 4.832397 8.281719 13.245863 -1.563243 1.142095 20.668591 -30.246238 7.386618 -2.834707 -48.754186 -6.427596 10.965194 6.960405 -30.224102 12.837774 5.922274 -5.010175 7.500382 30.086111 -6.498741 2.792624 48.741087 -0.424624 12.790107 -17.958819 33.738614 4.807900 0.927779 5.288830 5.872692 
0.237351 0.204520 0.994668 141.448968 -0.130743 85.217559 0.293380 -5.441266 7.181219 -7.214774 -28.742514 13.953895 2.984618 2.928407 -18.751396 0.000000 -0.000000 0.000000 0.679553 4.184213 -8.276699 -0.421708 11.263714 12.951245 6.436709 -2.816476 -6.656665 0.000000 -0.000000 0.000000 1.740937 0.616134 7.483218 1.290235 1.860146 3.851706 -2.233850 0.930726 3.731985 4.837340 7.967909 13.375196 -1.424582 1.685060 20.787912 -30.097277 7.449068 -2.538999 -49.920982 -5.888194 10.598690 8.667711 -29.982172 11.438073 4.135860 -4.677115 6.689471 29.758585 -6.215625 3.185217 48.854521 -0.599224 12.315095 -18.041353 33.438313 4.939379 4.224149 4.503787 4.812767 
0.246768 0.207361 0.996171 144.039777 -0.493291 84.792981 0.114077 -5.629613 5.566908 -9.124691 -27.644472 18.694261 2.353035 2.263404 -18.476330 0.000000 -0.000000 0.000000 0.461496 3.365004 -6.968101 -0.577532 10.230408 12.734874 5.911968 -3.226044 -7.250169 0.000000 -0.000000 0.000000 1.989421 1.160918 7.911487 1.336815 1.789086 3.809126 -2.088093 1.109197 3.694066 4.806385 7.659879 13.644080 -1.199476 1.922104 20.390289 -29.949849 7.396290 -2.398315 -50.559048 -5.335649 10.306850 9.169921 -29.483730 11.191702 4.228141 -4.615426 5.996169 29.393811 -5.946694 3.545107 48.863926 -0.531499 11.914199 -17.817755 33.198990 5.454127 3.809709 4.477306 4.850921 
0.256016 0.210602 0.997729 146.806823 -1.017256 84.128542 -0.008389 -5.555680 3.973780 -10.998659 -25.675877 23.407159 1.520615 1.043346 -17.483012 0.000000 -0.000000 0.000000 0.070307 2.330539 -5.223071 -0.800802 9.186912 12.206313 5.326860 -3.651942 -7.666063 0.000000 -0.000000 0.000000 2.137224 1.798819 8.526150 1.325979 1.555742 3.807942 -2.120102 1.173851 3.493727 5.071599 7.221542 14.075507 -0.840818 1.919900 20.320254 -29.756627 7.479631 -2.097588 -50.570601 -4.765585 10.120573 8.629452 -29.588676 12.236028 1.978711 -5.115090 5.378332 29.154407 -5.784983 3.627743 48.850954 -0.456333 11.661518 -17.691390 33.071183 6.054088 4.670617 4.531732 4.977227 
0.264683 0.213666 0.999004 149.366121 -1.402757 83.323879 0.330834 -5.150579 2.093207 -13.258652 -23.378190 28.378479 0.055408 -0.037416 -15.785583 0.000000 -0.000000 0.000000 -0.349330 1.317635 -3.314812 -0.693463 8.049640 11.500385 4.670532 -3.962750 -8.114118 0.000000 -0.000000 0.000000 2.455817 2.334942 9.200541 1.262906 1.451769 3.821883 -2.123236 1.376572 3.516828 5.179249 7.251341 14.667122 -0.331145 2.360257 19.908537 -29.905226 7.314595 -2.185890 -50.166047 -3.910461 9.978929 8.149519 -29.769030 13.242309 3.813335 -5.053449 6.006578 29.099858 -5.559532 3.694809 48.417834 -0.420660 11.270388 -16.983855 33.447931 7.353167 3.459535 4.577637 5.716763 
0.271662 0.216748 0.999760 151.787582 -1.942820 82.632146 0.755227 -4.744080 -0.130660 -15.142363 -20.385513 33.058072 -1.465045 -1.709792 -13.466320 0.000000 -0.000000 0.000000 -1.155908 -0.248657 -1.472941 -0.508026 6.971681 10.501497 3.964973 -3.651475 -8.270042 0.000000 -0.000000 0.000000 2.713150 3.124387 9.869464 1.241785 1.235511 3.841715 -2.160119 1.670292 3.270314 5.234694 7.043309 15.124684 0.183674 2.545693 20.012899 -30.139567 7.174618 -2.070519 -49.917580 -3.076273 9.686460 7.862487 -30.107281 14.061033 3.599042 -5.174906 6.545927 28.948049 -5.438555 4.153357 47.972196 -0.332334 10.453016 -16.962230 34.257988 7.163341 3.363360 4.562008 5.416001 
0.278729 0.219685 1.000783 153.636429 -2.347091 81.959065 1.759026 -3.763004 -1.997622 -16.847513 -17.975724 36.583733 -4.009875 -2.984357 -10.868410 0.000000 -0.000000 0.000000 -1.827594 -1.494879 0.386493 -0.198448 6.196875 9.296957 3.537444 -3.319346 -8.383891 0.000000 -0.000000 0.000000 2.800597 3.787735 10.598980 1.232028 1.323315 3.720029 -2.040050 2.073394 2.906311 5.382568 7.032713 15.782257 0.480732 3.129655 20.200031 -30.663416 7.513398 -2.220848 -49.635556 -2.159063 9.366370 7.658553 -30.467055 14.131774 4.355473 -5.121092 6.037033 28.972826 -5.438632 4.417959 47.157692 -0.101737 9.820486 -16.595868 34.884966 7.318793 2.792103 4.722262 5.346046 
0.284397 0.223061 1.001872 155.088364 -2.763738 81.349032 2.823954 -2.555323 -3.242416 -17.238177 -15.216227 38.214132 -7.105924 -2.812245 -9.531375 0.000000 -0.000000 0.000000 -2.728248 -2.506324 2.311361 0.334794 5.288986 7.862845 3.287962 -2.648439 -8.542591 0.000000 -0.000000 0.000000 3.071062 4.235762 10.860092 1.101093 1.527836 3.940141 -2.004999 2.483928 2.670709 5.287567 7.115309 16.207548 0.747546 3.432151 20.539698 -31.286645 7.936712 -2.694424 -49.412103 -0.968049 8.932265 7.535239 -30.698021 13.538883 4.512981 -4.711857 5.907345 28.790014 -5.159349 4.908563 46.469060 0.532006 9.081406 -16.529965 35.205273 6.708544 2.656899 4.663197 4.760887 
